<?xml version="1.0" encoding="UTF-8" standalone="no"?>
<!DOCTYPE svg PUBLIC "-//W3C//DTD SVG 1.1//EN"
 "http://www.w3.org/Graphics/SVG/1.1/DTD/svg11.dtd">
<!-- Generated by graphviz version 13.0.1 (20250615.1724)
 -->
<!-- Title: packages_Diagrama Pages: 1 -->
<svg width="1169pt" height="404pt"
 viewBox="0.00 0.00 1169.00 404.00" xmlns="http://www.w3.org/2000/svg" xmlns:xlink="http://www.w3.org/1999/xlink">
<g id="graph0" class="graph" transform="scale(1 1) rotate(0) translate(4 400)">
<title>packages_Diagrama</title>
<polygon fill="white" stroke="none" points="-4,4 -4,-400 1164.73,-400 1164.73,4 -4,4"/>
<!-- app -->
<g id="node1" class="node">
<title>app</title>
<polygon fill="none" stroke="black" points="641.73,-36 587.73,-36 587.73,0 641.73,0 641.73,-36"/>
<text xml:space="preserve" text-anchor="start" x="604.98" y="-12.95" font-family="Times New Roman,serif" font-size="14.00">app</text>
</g>
<!-- routes.api_pagos -->
<g id="node17" class="node">
<title>routes.api_pagos</title>
<polygon fill="none" stroke="black" points="584.48,-108 476.98,-108 476.98,-72 584.48,-72 584.48,-108"/>
<text xml:space="preserve" text-anchor="start" x="484.98" y="-84.95" font-family="Times New Roman,serif" font-size="14.00">routes.api_pagos</text>
</g>
<!-- app&#45;&gt;routes.api_pagos -->
<g id="edge1" class="edge">
<title>app&#45;&gt;routes.api_pagos</title>
<path fill="none" stroke="black" d="M593.97,-36.3C583.77,-44.8 571.31,-55.19 560.15,-64.49"/>
<polygon fill="black" stroke="black" points="552.49,-70.87 557.29,-61.01 555.39,-68.45 560.17,-64.47 560.17,-64.47 560.17,-64.47 555.39,-68.45 563.05,-67.93 552.49,-70.87"/>
</g>
<!-- routes.api_persona -->
<g id="node18" class="node">
<title>routes.api_persona</title>
<polygon fill="none" stroke="black" points="676.73,-252 558.73,-252 558.73,-216 676.73,-216 676.73,-252"/>
<text xml:space="preserve" text-anchor="start" x="566.73" y="-228.95" font-family="Times New Roman,serif" font-size="14.00">routes.api_persona</text>
</g>
<!-- app&#45;&gt;routes.api_persona -->
<g id="edge2" class="edge">
<title>app&#45;&gt;routes.api_persona</title>
<path fill="none" stroke="black" d="M614.97,-36.15C615.49,-72.93 616.71,-159.71 617.34,-204.76"/>
<polygon fill="black" stroke="black" points="617.48,-214.55 612.84,-204.61 617.42,-210.77 617.34,-204.55 617.34,-204.55 617.34,-204.55 617.42,-210.77 621.83,-204.49 617.48,-214.55"/>
</g>
<!-- routes.authentication -->
<g id="node19" class="node">
<title>routes.authentication</title>
<polygon fill="none" stroke="black" points="772.36,-108 643.11,-108 643.11,-72 772.36,-72 772.36,-108"/>
<text xml:space="preserve" text-anchor="start" x="651.11" y="-84.95" font-family="Times New Roman,serif" font-size="14.00">routes.authentication</text>
</g>
<!-- app&#45;&gt;routes.authentication -->
<g id="edge3" class="edge">
<title>app&#45;&gt;routes.authentication</title>
<path fill="none" stroke="black" d="M637.72,-36.3C649.24,-44.97 663.36,-55.6 675.9,-65.04"/>
<polygon fill="black" stroke="black" points="683.71,-70.92 673.02,-68.5 680.69,-68.65 675.72,-64.91 675.72,-64.91 675.72,-64.91 680.69,-68.65 678.43,-61.31 683.71,-70.92"/>
</g>
<!-- crud -->
<g id="node2" class="node">
<title>crud</title>
<polygon fill="none" stroke="black" points="713.73,-36 659.73,-36 659.73,0 713.73,0 713.73,-36"/>
<text xml:space="preserve" text-anchor="start" x="674.73" y="-12.95" font-family="Times New Roman,serif" font-size="14.00">crud</text>
</g>
<!-- crud.pago_agua -->
<g id="node3" class="node">
<title>crud.pago_agua</title>
<polygon fill="none" stroke="black" points="833.86,-36 731.61,-36 731.61,0 833.86,0 833.86,-36"/>
<text xml:space="preserve" text-anchor="start" x="739.61" y="-12.95" font-family="Times New Roman,serif" font-size="14.00">crud.pago_agua</text>
</g>
<!-- crud.pago_agua.create -->
<g id="node4" class="node">
<title>crud.pago_agua.create</title>
<polygon fill="none" stroke="black" points="172.86,-252 34.61,-252 34.61,-216 172.86,-216 172.86,-252"/>
<text xml:space="preserve" text-anchor="start" x="42.61" y="-228.95" font-family="Times New Roman,serif" font-size="14.00">crud.pago_agua.create</text>
</g>
<!-- models.pago_agua -->
<g id="node14" class="node">
<title>models.pago_agua</title>
<polygon fill="none" stroke="black" points="131.73,-324 13.73,-324 13.73,-288 131.73,-288 131.73,-324"/>
<text xml:space="preserve" text-anchor="start" x="21.73" y="-300.95" font-family="Times New Roman,serif" font-size="14.00">models.pago_agua</text>
</g>
<!-- crud.pago_agua.create&#45;&gt;models.pago_agua -->
<g id="edge4" class="edge">
<title>crud.pago_agua.create&#45;&gt;models.pago_agua</title>
<path fill="none" stroke="black" d="M96.07,-252.3C92.66,-260.02 88.55,-269.29 84.74,-277.89"/>
<polygon fill="black" stroke="black" points="80.8,-286.78 80.74,-275.82 82.33,-283.32 84.85,-277.64 84.85,-277.64 84.85,-277.64 82.33,-283.32 88.97,-279.46 80.8,-286.78"/>
</g>
<!-- utils.nucleo -->
<g id="node22" class="node">
<title>utils.nucleo</title>
<polygon fill="none" stroke="black" points="219.23,-396 140.23,-396 140.23,-360 219.23,-360 219.23,-396"/>
<text xml:space="preserve" text-anchor="start" x="148.23" y="-372.95" font-family="Times New Roman,serif" font-size="14.00">utils.nucleo</text>
</g>
<!-- crud.pago_agua.create&#45;&gt;utils.nucleo -->
<g id="edge5" class="edge">
<title>crud.pago_agua.create&#45;&gt;utils.nucleo</title>
<path fill="none" stroke="black" d="M116.96,-252.1C124.46,-262.22 133.71,-275.47 140.73,-288 151.88,-307.86 162.11,-331.52 169.3,-349.45"/>
<polygon fill="black" stroke="black" points="172.91,-358.66 165.07,-351 171.53,-355.14 169.26,-349.35 169.26,-349.35 169.26,-349.35 171.53,-355.14 173.45,-347.7 172.91,-358.66"/>
</g>
<!-- crud.pago_agua.menu -->
<g id="node5" class="node">
<title>crud.pago_agua.menu</title>
<polygon fill="none" stroke="black" points="256.11,-180 119.36,-180 119.36,-144 256.11,-144 256.11,-180"/>
<text xml:space="preserve" text-anchor="start" x="127.36" y="-156.95" font-family="Times New Roman,serif" font-size="14.00">crud.pago_agua.menu</text>
</g>
<!-- crud.pago_agua.menu&#45;&gt;crud.pago_agua.create -->
<g id="edge6" class="edge">
<title>crud.pago_agua.menu&#45;&gt;crud.pago_agua.create</title>
<path fill="none" stroke="black" d="M166.97,-180.3C156.77,-188.8 144.31,-199.19 133.15,-208.49"/>
<polygon fill="black" stroke="black" points="125.49,-214.87 130.29,-205.01 128.39,-212.45 133.17,-208.47 133.17,-208.47 133.17,-208.47 128.39,-212.45 136.05,-211.93 125.49,-214.87"/>
</g>
<!-- crud.pago_agua.modificar -->
<g id="node6" class="node">
<title>crud.pago_agua.modificar</title>
<polygon fill="none" stroke="black" points="350.36,-252 191.11,-252 191.11,-216 350.36,-216 350.36,-252"/>
<text xml:space="preserve" text-anchor="start" x="199.11" y="-228.95" font-family="Times New Roman,serif" font-size="14.00">crud.pago_agua.modificar</text>
</g>
<!-- crud.pago_agua.menu&#45;&gt;crud.pago_agua.modificar -->
<g id="edge7" class="edge">
<title>crud.pago_agua.menu&#45;&gt;crud.pago_agua.modificar</title>
<path fill="none" stroke="black" d="M208.25,-180.3C218.33,-188.8 230.64,-199.19 241.67,-208.49"/>
<polygon fill="black" stroke="black" points="249.23,-214.87 238.69,-211.86 246.34,-212.43 241.59,-208.42 241.59,-208.42 241.59,-208.42 246.34,-212.43 244.49,-204.98 249.23,-214.87"/>
</g>
<!-- crud.pago_agua.show -->
<g id="node7" class="node">
<title>crud.pago_agua.show</title>
<polygon fill="none" stroke="black" points="502.98,-252 368.48,-252 368.48,-216 502.98,-216 502.98,-252"/>
<text xml:space="preserve" text-anchor="start" x="376.48" y="-228.95" font-family="Times New Roman,serif" font-size="14.00">crud.pago_agua.show</text>
</g>
<!-- crud.pago_agua.menu&#45;&gt;crud.pago_agua.show -->
<g id="edge8" class="edge">
<title>crud.pago_agua.menu&#45;&gt;crud.pago_agua.show</title>
<path fill="none" stroke="black" d="M249.68,-180.48C284.28,-190.25 327.57,-202.47 363.68,-212.66"/>
<polygon fill="black" stroke="black" points="372.98,-215.29 362.13,-216.9 369.34,-214.26 363.36,-212.57 363.36,-212.57 363.36,-212.57 369.34,-214.26 364.58,-208.24 372.98,-215.29"/>
</g>
<!-- crud.pago_agua.menu&#45;&gt;models.pago_agua -->
<g id="edge9" class="edge">
<title>crud.pago_agua.menu&#45;&gt;models.pago_agua</title>
<path fill="none" stroke="black" d="M118.88,-167.26C85.02,-173.25 47.01,-186.65 25.73,-216 11.15,-236.12 27.27,-261.35 44.49,-279.81"/>
<polygon fill="black" stroke="black" points="51.51,-286.9 41.28,-282.96 48.85,-284.21 44.48,-279.8 44.48,-279.8 44.48,-279.8 48.85,-284.21 47.67,-276.63 51.51,-286.9"/>
</g>
<!-- crud.pago_agua.menu&#45;&gt;utils.nucleo -->
<g id="edge10" class="edge">
<title>crud.pago_agua.menu&#45;&gt;utils.nucleo</title>
<path fill="none" stroke="black" d="M119.18,-167.13C83.18,-172.99 41.35,-186.31 15.73,-216 -5.41,-240.51 7.19,-255.72 4.73,-288 3.52,-303.95 -4.8,-311.15 4.73,-324 33,-362.1 87.91,-373.78 128.71,-376.9"/>
<polygon fill="black" stroke="black" points="138.6,-377.49 128.35,-381.39 134.82,-377.27 128.62,-376.89 128.62,-376.89 128.62,-376.89 134.82,-377.27 128.89,-372.4 138.6,-377.49"/>
</g>
<!-- crud.personas.persona -->
<g id="node10" class="node">
<title>crud.personas.persona</title>
<polygon fill="none" stroke="black" points="515.11,-324 378.36,-324 378.36,-288 515.11,-288 515.11,-324"/>
<text xml:space="preserve" text-anchor="start" x="386.36" y="-300.95" font-family="Times New Roman,serif" font-size="14.00">crud.personas.persona</text>
</g>
<!-- crud.pago_agua.show&#45;&gt;crud.personas.persona -->
<g id="edge11" class="edge">
<title>crud.pago_agua.show&#45;&gt;crud.personas.persona</title>
<path fill="none" stroke="black" d="M438.45,-252.3C439.63,-259.76 441.03,-268.68 442.34,-277.03"/>
<polygon fill="black" stroke="black" points="443.86,-286.69 437.86,-277.51 443.27,-282.96 442.3,-276.81 442.3,-276.81 442.3,-276.81 443.27,-282.96 446.75,-276.11 443.86,-286.69"/>
</g>
<!-- crud.personas -->
<g id="node8" class="node">
<title>crud.personas</title>
<polygon fill="none" stroke="black" points="943.23,-36 852.23,-36 852.23,0 943.23,0 943.23,-36"/>
<text xml:space="preserve" text-anchor="start" x="860.23" y="-12.95" font-family="Times New Roman,serif" font-size="14.00">crud.personas</text>
</g>
<!-- crud.personas.panel_control -->
<g id="node9" class="node">
<title>crud.personas.panel_control</title>
<polygon fill="none" stroke="black" points="702.23,-324 533.23,-324 533.23,-288 702.23,-288 702.23,-324"/>
<text xml:space="preserve" text-anchor="start" x="541.23" y="-300.95" font-family="Times New Roman,serif" font-size="14.00">crud.personas.panel_control</text>
</g>
<!-- models.estado_especial -->
<g id="node13" class="node">
<title>models.estado_especial</title>
<polygon fill="none" stroke="black" points="682.86,-396 538.61,-396 538.61,-360 682.86,-360 682.86,-396"/>
<text xml:space="preserve" text-anchor="start" x="546.61" y="-372.95" font-family="Times New Roman,serif" font-size="14.00">models.estado_especial</text>
</g>
<!-- crud.personas.panel_control&#45;&gt;models.estado_especial -->
<g id="edge12" class="edge">
<title>crud.personas.panel_control&#45;&gt;models.estado_especial</title>
<path fill="none" stroke="black" d="M616,-324.3C615.27,-331.68 614.39,-340.48 613.56,-348.75"/>
<polygon fill="black" stroke="black" points="612.57,-358.68 609.08,-348.29 612.94,-354.92 613.56,-348.73 613.56,-348.73 613.56,-348.73 612.94,-354.92 618.04,-349.18 612.57,-358.68"/>
</g>
<!-- models.clase_abstracta -->
<g id="node12" class="node">
<title>models.clase_abstracta</title>
<polygon fill="none" stroke="black" points="382.36,-396 241.11,-396 241.11,-360 382.36,-360 382.36,-396"/>
<text xml:space="preserve" text-anchor="start" x="249.11" y="-372.95" font-family="Times New Roman,serif" font-size="14.00">models.clase_abstracta</text>
</g>
<!-- crud.personas.persona&#45;&gt;models.clase_abstracta -->
<g id="edge13" class="edge">
<title>crud.personas.persona&#45;&gt;models.clase_abstracta</title>
<path fill="none" stroke="black" d="M413.02,-324.48C395.41,-333.61 373.66,-344.89 354.85,-354.65"/>
<polygon fill="black" stroke="black" points="346.1,-359.18 352.91,-350.58 349.46,-357.44 354.98,-354.58 354.98,-354.58 354.98,-354.58 349.46,-357.44 357.05,-358.57 346.1,-359.18"/>
</g>
<!-- crud.personas.persona&#45;&gt;models.estado_especial -->
<g id="edge14" class="edge">
<title>crud.personas.persona&#45;&gt;models.estado_especial</title>
<path fill="none" stroke="black" d="M487.7,-324.48C509.6,-333.83 536.76,-345.43 559.99,-355.34"/>
<polygon fill="black" stroke="black" points="568.89,-359.14 557.93,-359.35 565.41,-357.66 559.69,-355.21 559.69,-355.21 559.69,-355.21 565.41,-357.66 561.46,-351.08 568.89,-359.14"/>
</g>
<!-- models.personas -->
<g id="node15" class="node">
<title>models.personas</title>
<polygon fill="none" stroke="black" points="507.11,-396 400.36,-396 400.36,-360 507.11,-360 507.11,-396"/>
<text xml:space="preserve" text-anchor="start" x="408.36" y="-372.95" font-family="Times New Roman,serif" font-size="14.00">models.personas</text>
</g>
<!-- crud.personas.persona&#45;&gt;models.personas -->
<g id="edge15" class="edge">
<title>crud.personas.persona&#45;&gt;models.personas</title>
<path fill="none" stroke="black" d="M448.46,-324.3C449.2,-331.68 450.08,-340.48 450.91,-348.75"/>
<polygon fill="black" stroke="black" points="451.9,-358.68 446.43,-349.18 451.53,-354.92 450.91,-348.73 450.91,-348.73 450.91,-348.73 451.53,-354.92 455.39,-348.29 451.9,-358.68"/>
</g>
<!-- crud.personas.persona&#45;&gt;utils.nucleo -->
<g id="edge16" class="edge">
<title>crud.personas.persona&#45;&gt;utils.nucleo</title>
<path fill="none" stroke="black" d="M378.13,-322.54C335.74,-332.48 280.34,-346.09 231.73,-360 231.24,-360.14 230.75,-360.28 230.26,-360.43"/>
<polygon fill="black" stroke="black" points="220.84,-363.26 229.12,-356.07 224.46,-362.17 230.41,-360.38 230.41,-360.38 230.41,-360.38 224.46,-362.17 231.71,-364.69 220.84,-363.26"/>
</g>
<!-- models -->
<g id="node11" class="node">
<title>models</title>
<polygon fill="none" stroke="black" points="1016.61,-36 960.86,-36 960.86,0 1016.61,0 1016.61,-36"/>
<text xml:space="preserve" text-anchor="start" x="968.86" y="-12.95" font-family="Times New Roman,serif" font-size="14.00">models</text>
</g>
<!-- routes -->
<g id="node16" class="node">
<title>routes</title>
<polygon fill="none" stroke="black" points="1088.73,-36 1034.73,-36 1034.73,0 1088.73,0 1088.73,-36"/>
<text xml:space="preserve" text-anchor="start" x="1045.23" y="-12.95" font-family="Times New Roman,serif" font-size="14.00">routes</text>
</g>
<!-- routes.api_pagos&#45;&gt;crud.pago_agua.menu -->
<g id="edge17" class="edge">
<title>routes.api_pagos&#45;&gt;crud.pago_agua.menu</title>
<path fill="none" stroke="black" d="M476.76,-102.01C420.5,-113.5 331.71,-131.62 267.38,-144.75"/>
<polygon fill="black" stroke="black" points="257.67,-146.73 266.56,-140.32 261.37,-145.97 267.46,-144.73 267.46,-144.73 267.46,-144.73 261.37,-145.97 268.36,-149.14 257.67,-146.73"/>
</g>
<!-- routes.api_pagos&#45;&gt;crud.personas.persona -->
<g id="edge18" class="edge">
<title>routes.api_pagos&#45;&gt;crud.personas.persona</title>
<path fill="none" stroke="black" d="M532.73,-108.24C535.47,-139.14 537.47,-205.12 511.73,-252 505.56,-263.25 495.92,-273.04 485.95,-281.04"/>
<polygon fill="black" stroke="black" points="478.15,-286.87 483.46,-277.28 481.18,-284.61 486.16,-280.88 486.16,-280.88 486.16,-280.88 481.18,-284.61 488.85,-284.49 478.15,-286.87"/>
</g>
<!-- routes.api_persona&#45;&gt;crud.personas.panel_control -->
<g id="edge19" class="edge">
<title>routes.api_persona&#45;&gt;crud.personas.panel_control</title>
<path fill="none" stroke="black" d="M617.73,-252.3C617.73,-259.68 617.73,-268.48 617.73,-276.75"/>
<polygon fill="black" stroke="black" points="617.73,-286.68 613.23,-276.68 617.73,-282.9 617.73,-276.68 617.73,-276.68 617.73,-276.68 617.73,-282.9 622.23,-276.68 617.73,-286.68"/>
</g>
<!-- routes.api_persona&#45;&gt;crud.personas.persona -->
<g id="edge20" class="edge">
<title>routes.api_persona&#45;&gt;crud.personas.persona</title>
<path fill="none" stroke="black" d="M575.02,-252.48C552.09,-261.87 523.61,-273.53 499.32,-283.47"/>
<polygon fill="black" stroke="black" points="490.32,-287.16 497.87,-279.2 493.82,-285.72 499.58,-283.37 499.58,-283.37 499.58,-283.37 493.82,-285.72 501.28,-287.53 490.32,-287.16"/>
</g>
<!-- routes.api_persona&#45;&gt;utils.nucleo -->
<g id="edge21" class="edge">
<title>routes.api_persona&#45;&gt;utils.nucleo</title>
<path fill="none" stroke="black" d="M558.35,-243.78C507.46,-252.23 432.65,-266.85 369.73,-288 316.49,-305.9 258.44,-334.53 220.7,-354.47"/>
<polygon fill="black" stroke="black" points="212.17,-359.02 218.87,-350.35 215.5,-357.24 220.99,-354.32 220.99,-354.32 220.99,-354.32 215.5,-357.24 223.11,-358.29 212.17,-359.02"/>
</g>
<!-- routes.security -->
<g id="node20" class="node">
<title>routes.security</title>
<polygon fill="none" stroke="black" points="755.48,-180 659.98,-180 659.98,-144 755.48,-144 755.48,-180"/>
<text xml:space="preserve" text-anchor="start" x="667.98" y="-156.95" font-family="Times New Roman,serif" font-size="14.00">routes.security</text>
</g>
<!-- routes.authentication&#45;&gt;routes.security -->
<g id="edge22" class="edge">
<title>routes.authentication&#45;&gt;routes.security</title>
<path fill="none" stroke="black" d="M707.73,-108.3C707.73,-115.68 707.73,-124.48 707.73,-132.75"/>
<polygon fill="black" stroke="black" points="707.73,-142.68 703.23,-132.68 707.73,-138.9 707.73,-132.68 707.73,-132.68 707.73,-132.68 707.73,-138.9 712.23,-132.68 707.73,-142.68"/>
</g>
<!-- utils -->
<g id="node21" class="node">
<title>utils</title>
<polygon fill="none" stroke="black" points="1160.73,-36 1106.73,-36 1106.73,0 1160.73,0 1160.73,-36"/>
<text xml:space="preserve" text-anchor="start" x="1122.11" y="-12.95" font-family="Times New Roman,serif" font-size="14.00">utils</text>
</g>
</g>
</svg>
