<?xml version="1.0" standalone="no"?>
<!DOCTYPE svg PUBLIC "-//W3C//DTD SVG 20010904//EN"
 "http://www.w3.org/TR/2001/REC-SVG-20010904/DTD/svg10.dtd">
<svg version="1.0" xmlns="http://www.w3.org/2000/svg"
 width="980.000000pt" height="980.000000pt" viewBox="0 0 980.000000 980.000000"
 preserveAspectRatio="xMidYMid meet">

<g transform="translate(0.000000,980.000000) scale(0.100000,-0.100000)"
fill="#000000" stroke="none">
<path d="M4726 7868 c-3 -13 -7 -133 -10 -268 -7 -424 -73 -713 -237 -1047
-119 -243 -255 -431 -653 -907 -171 -204 -290 -362 -376 -498 -165 -264 -312
-614 -384 -918 -53 -220 -60 -283 -61 -520 0 -196 3 -240 23 -337 142 -702
706 -1251 1454 -1417 185 -41 288 -49 521 -43 175 4 233 10 335 31 566 120
1000 447 1246 941 90 182 146 361 188 601 19 112 22 165 23 409 0 313 -11 425
-70 720 -182 901 -664 1879 -1306 2645 -226 270 -603 630 -661 630 -21 0 -29
-6 -32 -22z m344 -348 c783 -782 1426 -2007 1599 -3045 38 -230 46 -328 46
-580 0 -276 -12 -381 -66 -597 -174 -691 -669 -1151 -1381 -1284 -112 -21
-429 -30 -554 -15 -815 96 -1444 638 -1606 1385 -19 86 -22 132 -22 316 0 180
3 236 23 344 68 385 235 798 454 1126 93 139 160 225 422 540 340 409 457 576
581 835 151 313 225 644 238 1065 3 80 5 147 6 148 1 9 137 -116 260 -238z"/>
<path d="M5539 5721 c-41 -32 -59 -80 -59 -158 0 -195 133 -393 264 -393 48 0
102 48 117 103 14 53 6 156 -17 227 -23 69 -87 164 -136 204 -51 40 -130 48
-169 17z m113 -78 c90 -54 163 -263 125 -356 -18 -42 -37 -47 -80 -18 -97 63
-173 295 -121 369 18 27 36 28 76 5z"/>
<path d="M5805 4937 c-57 -57 -70 -122 -70 -337 0 -124 7 -235 20 -335 23
-184 27 -467 6 -570 -32 -158 -92 -288 -199 -433 -76 -103 -104 -174 -105
-267 -1 -126 58 -238 157 -300 44 -27 58 -30 130 -30 70 0 87 4 127 27 147 86
328 418 386 706 21 107 24 425 5 547 -60 378 -143 699 -219 850 -84 166 -166
214 -238 142z m104 -82 c81 -92 162 -336 231 -688 108 -560 66 -883 -160
-1232 -108 -166 -197 -222 -294 -185 -44 16 -103 78 -126 132 -19 43 -22 65
-18 128 5 86 16 110 100 223 201 272 254 557 193 1047 -23 184 -30 382 -16
468 12 79 34 142 49 142 6 0 24 -16 41 -35z"/>
</g>
</svg>
